<?xml version="1.0" encoding="UTF-8"?>
<svg viewBox="0 0 640 480" xmlns="http://www.w3.org/2000/svg">
 <path d="m122 30l96-12 156 12c-30.333 11.667-62.667 16.333-106 20l-146-20z" fill="#ffa" stroke-width="0"/>
 <g fill-rule="evenodd">
  <path d="m346.31 89.205c-27.275 0.42386-34.338 35.71-16.239 52.572 13.565 19.557 39.16 12.2 57.943 6.3871 20.88-6.6297 51.967-13.405 64.026 11.145 19.953 39.516 15.531 89.762-6.8295 127.37-11.786 25.511-43.039 20.717-62.605 8.1618-17.447-7.9423-41.864-25.912-58.799-7.5392-22.509 21.862-15.427 63.224 11.908 77.863 25.689 17.719 58.554 40.15 90.573 24.976 29.506-16.642 42.373-50.69 54.86-80.339 20.412-57.589 30.998-123.44 8.4597-181.99-11.615-31.311-45.714-47.084-77.542-45.956-22.148-0.34016-43.948 4.1301-65.756 7.349z" fill="#ffffd5" stroke="#000" stroke-width="6.1"/>
  <path d="m458.33 158.62c-4.9191-12.911-20.286-33.553-14.905-43.366 22.005 24.665 38.52 56.447 37.347 90.3-0.69037 34.034-5.5766 69.855-23.314 99.452-6.1129 10.767-41.791 28.87-23.555 4.1641 19.545-23.074 38.358-49.199 39.668-80.648 1.9874-24.182-4.2725-48.45-15.241-69.904z" fill="#c8c994"/>
 </g>
 <path d="m119.88 33.633c80.556 5.9386 162.51 19.525 242.77 3.9822 14.341-4.1659 28.696-11.484 23.098 9.7221-1.2186 130.95-3.1971 262.19 7.6008 392.82-13.683 18.408-42.683 14.356-63.705 17.611-62.217 2.228-125.63-0.23657-185.93-16.876-26.858-3.2081-38.241-26.59-29.5-50.986 9.8905-118.42 11.902-237.61 5.6661-356.28v-1.5e-5z" fill-rule="evenodd" stroke="#000" stroke-width="7.882"/>
 <path d="m363.34 421.96c-45.674 29.008-231.87 7.6016-233.09-26.24-0.76372-58.996 1.4752-250.52 11.764-308.15-17.564-47.28 137.3-6.0364 226.55-19.674-37.303 57.862 17.36 231.96-5.2295 354.07z" fill="#f4b133" stroke-width="7.625"/>
 <path d="m371.92 38.923c-3.8366 0.03545-8.9591 1.6234-15.218 4.352-78.11 14.95-157.83 1.8793-236.21-3.832 6.0765 114.14 4.108 228.76-5.5016 342.66-8.5789 23.644 2.8051 46.033 28.712 49.049 58.703 16.011 120.37 18.372 180.9 16.231 20.445-3.1516 48.546 0.8136 61.968-16.943-10.371-123.84-8.5933-248.27-7.445-372.41 2.8052-13.652 0.12534-19.173-7.1986-19.105zm-203.07 36.65c0.41714 0.009254 0.84778 0.046967 1.2865 0.1095 10.372 10.839 11.91 30.27 14.945 46.34 5.5947 40.435 6.5142 81.858 5.748 122.98-1.5638 49.403-4.2065 99.834-16.861 146.9-1.6731 15.201-16.996 32.468-23.129 11.687-11.251-32.729-12.305-69.838-14.096-105.35-1.4863-61.898 0.64601-124.75 12.509-185.11 3.8943-13.131 6.6666-37.84 19.598-37.553zm74.997 6.8428c0.41711 0.001419 0.84662 0.027832 1.2864 0.082108 10.573 10.642 12.485 30.056 15.821 46.066 6.352 40.323 8.0421 81.742 8.0472 122.87-0.63702 49.424-2.3271 99.879-14.096 147.18-1.3877 15.23-16.388 32.76-22.91 12.098-11.862-32.512-13.61-69.55-16.067-105.02-2.6469-61.859-1.6959-124.75 9.0325-185.33 3.6474-13.202 5.9518-37.981 18.886-37.936zm72.424 2.6003c0.41705-0.004807 0.8457 0.034416 1.2864 0.082123 10.731 10.483 12.931 29.834 16.505 45.792 6.9528 40.224 9.2351 81.61 9.8536 122.73 0.10019 49.428-0.81665 99.9-11.879 147.37-1.1605 15.249-15.889 33.043-22.718 12.481-12.346-32.332-14.641-69.371-17.627-104.8-3.5694-61.813-3.5556-124.71 6.2681-185.44 3.4501-13.255 5.3777-38.062 18.311-38.21z" fill="#f4ca33" fill-rule="evenodd" stroke="#000" stroke-width="7.625"/>
 <path d="m160.58 239.75c-0.91336 29.372-2.211 59.363-6.9996 87.521-0.69936 9.0563-6.1989 19.554-8.1982 7.3057-3.7073-19.267-3.8054-41.282-4.1721-62.352-0.065002-36.747 1.1455-74.127 5.7544-110.17 1.511-8.1161 2.6846-23.499 7.5918-22.584 3.5183 6.0974 3.934 17.404 4.8765 26.714 1.6771 23.549 1.7139 47.79 1.1892 71.853" fill="#f4e382" stroke-width="7.625"/>
 <path d="m238.83 246.79c-0.36243 29.384-1.0973 59.394-5.357 87.637-0.52933 9.0678-5.8311 19.667-8.0598 7.4581-4.0679-19.194-4.5789-41.204-5.3408-62.262-0.75406-36.74-0.2448-74.135 3.6873-110.26 1.3586-8.1429 2.2434-23.545 7.1669-22.722 3.632 6.0305 4.2597 17.327 5.3767 26.618 2.1183 23.513 2.6098 47.749 2.5364 71.818" fill="#f4e382" stroke-width="7.625"/>
 <path d="m313.83 249.48c0.075806 29.386-0.21136 59.404-4.0493 87.707-0.39401 9.0747-5.537 19.752-7.9475 7.5775-4.3538-19.131-5.193-41.131-6.269-62.176-1.3019-36.724-1.3506-74.123 2.0423-110.3 1.237-8.1623 1.8919-23.576 6.8272-22.827 3.7216 5.9756 4.5178 17.262 5.7732 26.534 2.4689 23.479 3.3216 47.705 3.6074 71.772" fill="#f4e382" stroke-width="7.625"/>
 <path d="m120 30c77.667-26.333 206.33-10.667 261 1-88-7.3333-178-7.6667-261-1z" stroke="#000" stroke-width="5"/>
</svg>
